<?xml version="1.0" encoding="utf-8"?>
<!-- Generator: Adobe Illustrator 25.3.1, SVG Export Plug-In . SVG Version: 6.00 Build 0)  -->
<svg version="1.1" xmlns="http://www.w3.org/2000/svg" xmlns:xlink="http://www.w3.org/1999/xlink" x="0px" y="0px"
	 viewBox="0 0 1366 768" style="enable-background:new 0 0 1366 768;" xml:space="preserve">
<style type="text/css">
	.st0{display:none;}
	.st1{display:inline;}
	.st2{fill:#FFFFFF;}
	.st3{display:inline;fill:none;stroke:#000000;stroke-miterlimit:10;}
	.st4{display:inline;fill:none;stroke:#000000;stroke-width:10;stroke-miterlimit:10;}
</style>
<g id="レイヤー_1" class="st0">
	<g class="st1">
		<path d="M562.28,327.2c5.27,0,9.55,4.28,9.55,9.55c0,0.72-0.08,1.42-0.23,2.08l-0.27,1.13v1.16v79.85
			c0,19.89,16.18,36.07,36.07,36.07c9.08,0,17.75-3.38,24.42-9.52c3.52-3.24,6.32-7.09,8.3-11.33c4.27,1.01,8.66,1.51,13.14,1.51
			c10.69,0,21.09-2.99,30.08-8.55l6.03,6.03l-0.18,33.59c-0.37,3.11-0.55,6.25-0.55,9.35c0,36.48,24.95,67.23,58.68,76.1
			c-28.83,16-61.6,24.61-94.75,24.61c-16.95,0-33.86-2.23-50.23-6.62c-32.19-8.63-61.78-25.61-85.57-49.12
			c-13.68-13.51-25.31-29.01-34.5-45.85c5.08,1.54,10.41,2.35,15.86,2.35c30.39,0,55.11-24.73,55.11-55.12v-83.36v-1.16l-0.27-1.13
			c-0.15-0.66-0.23-1.35-0.23-2.08C552.73,331.48,557.01,327.2,562.28,327.2 M562.28,317.2c-10.79,0-19.55,8.75-19.55,19.55
			c0,1.5,0.17,2.97,0.5,4.37v83.36c0,24.92-20.2,45.12-45.11,45.12c-18.03,0-33.59-10.57-40.81-25.86
			c20.1,65.23,72.23,119.32,142.44,138.14c17.45,4.68,35.2,6.96,52.82,6.96c45.1,0,89.35-14.94,125.38-42.86
			c-3.47,0.54-7.02,0.82-10.63,0.82c-37.93,0-68.68-30.75-68.68-68.68c0-2.95,0.19-5.86,0.55-8.72v-0.03l0.2-38.31l-15.05-15.05
			c-8.3,7.27-19.17,11.69-31.08,11.69c-7.11,0-13.85-1.57-19.89-4.4c-1.18,13.31-12.35,23.74-25.97,23.74
			c-14.4,0-26.07-11.67-26.07-26.07v-79.85c0.33-1.4,0.5-2.87,0.5-4.37C581.83,325.95,573.08,317.2,562.28,317.2L562.28,317.2z"/>
	</g>
	<g class="st1">
		<path d="M498.12,464.6c-15.33,0-29.48-8.89-36.14-22.68c-1.45-4.74-2.75-9.63-3.87-14.55l-0.11-0.51
			c-6.91-30.97-6.23-63.53,1.97-94.15c11.53-43.05,36.61-80.1,72.53-107.15c34.81-26.22,77.7-40.65,120.77-40.65
			c17.19,0,34.36,2.27,51.04,6.74c32.17,8.62,61.75,25.22,85.85,48.14L688.16,341.8c-9.53-8.57-21.98-13.4-34.9-13.4
			c-28.76,0-52.15,23.39-52.15,52.15c0,5.43,0.83,10.78,2.47,15.89c4.03,12.61,12.77,23.23,24.28,29.65
			c-2.28,9.29-10.57,15.95-20.45,15.95c-11.62,0-21.07-9.45-21.07-21.07v-79.3c0.33-1.6,0.5-3.25,0.5-4.92
			c0-13.54-11.01-24.55-24.55-24.55c-13.54,0-24.55,11.01-24.55,24.55c0,1.67,0.17,3.32,0.5,4.92v82.81
			C538.23,446.6,520.24,464.6,498.12,464.6z"/>
		<path d="M653.29,189.91c16.75,0,33.48,2.21,49.74,6.56c29.71,7.96,57.15,22.9,79.93,43.44l-95.12,95.13
			c-9.87-7.49-22.03-11.65-34.57-11.65c-31.51,0-57.15,25.64-57.15,57.15c0,5.95,0.91,11.81,2.7,17.41
			c3.98,12.45,12.15,23.14,22.95,30.28c-2.64,5.27-8.08,8.8-14.37,8.8c-8.86,0-16.07-7.21-16.07-16.07v-78.82
			c0.33-1.77,0.5-3.58,0.5-5.4c0-16.29-13.26-29.55-29.55-29.55c-16.29,0-29.55,13.26-29.55,29.55c0,1.83,0.17,3.64,0.5,5.4v82.33
			c0,19.37-15.75,35.12-35.11,35.12c-13.3,0-25.58-7.64-31.47-19.52c-1.31-4.31-2.49-8.75-3.52-13.21v-0.02l-0.24-1.08
			c-6.74-30.19-6.08-61.92,1.92-91.76c5.66-21.13,14.79-40.97,27.13-58.96c11.92-17.39,26.59-32.69,43.58-45.49
			C569.47,204,611.29,189.92,653.29,189.91L653.29,189.91 M653.28,179.91c-90.26,0-173.77,60.59-198.13,151.51
			c-8.72,32.55-8.94,65.53-2.02,96.53v0.04c1.19,5.31,2.58,10.56,4.18,15.75c7.22,15.29,22.78,25.86,40.81,25.86
			c24.91,0,45.11-20.2,45.11-45.12v-83.36c-0.33-1.4-0.5-2.87-0.5-4.37c0-10.8,8.76-19.55,19.55-19.55
			c10.8,0,19.55,8.75,19.55,19.55c0,1.5-0.17,2.97-0.5,4.37v79.85c0,14.4,11.67,26.07,26.07,26.07c13.62,0,24.79-10.43,25.97-23.74
			c-11.84-5.5-21.01-15.79-25.03-28.38c-1.45-4.53-2.23-9.36-2.23-14.37c0-26.04,21.11-47.15,47.15-47.15
			c13.84,0,26.28,5.96,34.91,15.46l109.11-109.12c-25.38-25.38-57-43.63-91.67-52.92C688.16,182.14,670.6,179.91,653.28,179.91
			L653.28,179.91z"/>
	</g>
	<path class="st1" d="M797.28,528.95c-6.12,6.12-12.58,11.81-19.33,17.03c-3.47,0.54-7.02,0.82-10.63,0.82
		c-37.93,0-68.68-30.75-68.68-68.68c0-2.95,0.19-5.86,0.55-8.72v-0.03l0.2-38.31L797.28,528.95z"/>
	<g class="st1">
		<path d="M764.32,429.32l0.21-39.39c0.53-2.97,0.79-6.02,0.79-9.07c0-11.39-3.7-22.36-10.49-31.37l102.33-102.33
			c16.95,17.81,30.3,38.36,39.74,61.15c10.08,24.34,15.19,50.02,15.19,76.35c0,26.32-5.11,52-15.19,76.34
			c-9.44,22.79-22.8,43.34-39.74,61.15L764.32,429.32z"/>
		<path d="M857.02,254.37c14.87,16.47,26.71,35.22,35.26,55.85c9.83,23.73,14.81,48.77,14.81,74.43c0,25.66-4.98,50.7-14.81,74.42
			c-8.55,20.63-20.39,39.38-35.26,55.85l-87.69-87.68l0.19-36.88c0.53-3.12,0.79-6.32,0.79-9.52c0-11-3.15-21.65-9-30.79
			L857.02,254.37 M857.2,240.05L748.08,349.17c7.6,8.37,12.24,19.49,12.24,31.69c0,2.94-0.27,5.82-0.79,8.61l-0.22,41.91
			l97.89,97.88c38.33-38.34,59.89-90.39,59.89-144.6C917.09,330.44,895.53,278.39,857.2,240.05L857.2,240.05z"/>
	</g>
	<g class="st1">
		<path d="M759.53,389.47c-1.95,10.63-7.48,20.01-15.29,26.84l15.07,15.07L759.53,389.47L759.53,389.47z"/>
	</g>
</g>
<g id="レイヤー_5">
	<g>
		<path class="st2" d="M562.15,326.54c5.27,0,9.55,4.28,9.55,9.55c0,0.72-0.08,1.42-0.23,2.08l-0.27,1.13v1.16v79.85
			c0,19.89,16.18,36.07,36.07,36.07c9.08,0,17.75-3.38,24.42-9.52c3.52-3.24,6.32-7.09,8.3-11.33c4.27,1.01,8.66,1.51,13.14,1.51
			c10.69,0,21.09-2.99,30.08-8.55l6.03,6.03l-0.18,33.59c-0.37,3.11-0.55,6.25-0.55,9.35c0,36.48,24.95,67.23,58.68,76.1
			c-28.83,16-61.6,24.61-94.75,24.61c-16.95,0-33.86-2.23-50.23-6.62c-32.19-8.63-61.78-25.61-85.57-49.12
			c-13.68-13.51-25.31-29.01-34.5-45.85c5.08,1.54,10.41,2.35,15.86,2.35c30.39,0,55.11-24.73,55.11-55.12v-83.36v-1.16l-0.27-1.13
			c-0.15-0.66-0.23-1.36-0.23-2.08C552.6,330.83,556.88,326.54,562.15,326.54 M562.15,316.54c-10.79,0-19.55,8.75-19.55,19.55
			c0,1.5,0.17,2.97,0.5,4.37v83.36c0,24.92-20.2,45.12-45.11,45.12c-18.03,0-33.59-10.57-40.81-25.86
			c20.1,65.23,72.23,119.32,142.44,138.14c17.45,4.68,35.2,6.96,52.82,6.96c45.1,0,89.35-14.94,125.38-42.86
			c-3.47,0.54-7.02,0.82-10.63,0.82c-37.93,0-68.68-30.75-68.68-68.68c0-2.95,0.19-5.86,0.55-8.72v-0.03l0.2-38.31l-15.05-15.05
			c-8.3,7.27-19.17,11.69-31.08,11.69c-7.11,0-13.85-1.57-19.89-4.4c-1.18,13.31-12.35,23.74-25.97,23.74
			c-14.4,0-26.07-11.67-26.07-26.07v-79.85c0.33-1.4,0.5-2.87,0.5-4.37C581.7,325.29,572.95,316.54,562.15,316.54L562.15,316.54z"/>
	</g>
	<g>
		<path class="st2" d="M497.99,463.94c-15.33,0-29.48-8.89-36.14-22.68c-1.45-4.74-2.75-9.63-3.87-14.55l-0.11-0.51
			c-6.91-30.97-6.23-63.53,1.97-94.15c11.53-43.05,36.61-80.1,72.53-107.15c34.81-26.22,77.7-40.65,120.77-40.65
			c17.19,0,34.36,2.27,51.04,6.74c32.17,8.62,61.75,25.22,85.85,48.14L688.02,341.15c-9.53-8.57-21.98-13.4-34.9-13.4
			c-28.76,0-52.15,23.39-52.15,52.15c0,5.43,0.83,10.78,2.47,15.89c4.03,12.61,12.77,23.23,24.28,29.65
			c-2.28,9.29-10.57,15.95-20.45,15.95c-11.62,0-21.07-9.45-21.07-21.07v-79.3c0.33-1.6,0.5-3.25,0.5-4.92
			c0-13.54-11.01-24.55-24.55-24.55c-13.54,0-24.55,11.01-24.55,24.55c0,1.67,0.17,3.32,0.5,4.92v82.81
			C538.1,445.95,520.1,463.94,497.99,463.94z"/>
		<path class="st2" d="M653.16,189.26c16.75,0,33.48,2.21,49.73,6.56c29.71,7.96,57.15,22.9,79.93,43.44L687.7,334.4
			c-9.87-7.49-22.03-11.65-34.57-11.65c-31.51,0-57.15,25.64-57.15,57.15c0,5.95,0.91,11.81,2.7,17.41
			c3.98,12.45,12.15,23.14,22.95,30.28c-2.64,5.27-8.08,8.8-14.37,8.8c-8.86,0-16.07-7.21-16.07-16.07V341.5
			c0.33-1.77,0.5-3.58,0.5-5.4c0-16.29-13.26-29.55-29.55-29.55s-29.55,13.26-29.55,29.55c0,1.83,0.17,3.64,0.5,5.4v82.33
			c0,19.37-15.75,35.12-35.11,35.12c-13.3,0-25.58-7.64-31.47-19.52c-1.31-4.31-2.49-8.75-3.52-13.21v-0.02l-0.24-1.08
			c-6.74-30.19-6.08-61.92,1.92-91.76c5.66-21.13,14.79-40.97,27.13-58.96c11.92-17.39,26.59-32.69,43.58-45.49
			C569.33,203.34,611.16,189.26,653.16,189.26L653.16,189.26 M653.15,179.26c-90.26,0-173.77,60.59-198.13,151.51
			c-8.72,32.55-8.94,65.53-2.02,96.53v0.04c1.19,5.31,2.58,10.56,4.18,15.75c7.22,15.29,22.78,25.86,40.81,25.86
			c24.91,0,45.11-20.2,45.11-45.12v-83.36c-0.33-1.4-0.5-2.87-0.5-4.37c0-10.8,8.76-19.55,19.55-19.55
			c10.8,0,19.55,8.75,19.55,19.55c0,1.5-0.17,2.97-0.5,4.37v79.85c0,14.4,11.67,26.07,26.07,26.07c13.62,0,24.79-10.43,25.97-23.74
			c-11.84-5.5-21.01-15.79-25.03-28.38c-1.45-4.53-2.23-9.36-2.23-14.37c0-26.04,21.11-47.15,47.15-47.15
			c13.84,0,26.28,5.96,34.91,15.46l109.11-109.12c-25.38-25.38-57-43.63-91.67-52.92C688.03,181.49,670.47,179.26,653.15,179.26
			L653.15,179.26z"/>
	</g>
	<path class="st2" d="M797.15,528.29c-6.12,6.12-12.58,11.81-19.33,17.03c-3.47,0.54-7.02,0.82-10.63,0.82
		c-37.93,0-68.68-30.75-68.68-68.68c0-2.95,0.19-5.86,0.55-8.72v-0.03l0.2-38.31L797.15,528.29z"/>
	<g>
		<path class="st2" d="M764.19,428.66l0.21-39.39c0.53-2.97,0.79-6.02,0.79-9.07c0-11.39-3.7-22.36-10.49-31.37l102.33-102.33
			c16.95,17.81,30.3,38.36,39.74,61.15c10.08,24.34,15.19,50.02,15.19,76.35c0,26.32-5.11,52-15.19,76.34
			c-9.44,22.79-22.8,43.34-39.74,61.15L764.19,428.66z"/>
		<path class="st2" d="M856.89,253.72c14.87,16.47,26.71,35.22,35.26,55.85c9.83,23.73,14.81,48.77,14.81,74.43
			c0,25.66-4.98,50.7-14.81,74.42c-8.55,20.63-20.39,39.38-35.26,55.85L769.2,426.6l0.19-36.88c0.53-3.12,0.79-6.32,0.79-9.52
			c0-11-3.15-21.65-9-30.79L856.89,253.72 M857.07,239.39L747.95,348.51c7.6,8.37,12.24,19.49,12.24,31.69
			c0,2.94-0.27,5.82-0.79,8.61l-0.22,41.91l97.89,97.88c38.33-38.34,59.89-90.39,59.89-144.6
			C916.96,329.78,895.4,277.73,857.07,239.39L857.07,239.39z"/>
	</g>
	<g>
		<path class="st2" d="M751.23,415.7c1.07-1.15,2.09-2.35,3.05-3.59l-0.04,6.6L751.23,415.7z"/>
		<path class="st2" d="M759.4,388.81c-1.95,10.63-7.48,20.01-15.29,26.84l15.07,15.07L759.4,388.81L759.4,388.81z"/>
	</g>
</g>
<g id="レイヤー_3" class="st0">
	<g class="st1">
		<path d="M380.96,195.93c5.27,0,9.55,4.28,9.55,9.55c0,0.72-0.08,1.42-0.23,2.08l-0.27,1.13v1.16v79.85
			c0,19.89,16.18,36.07,36.07,36.07c9.08,0,17.75-3.38,24.42-9.52c3.52-3.24,6.32-7.09,8.3-11.33c4.27,1.01,8.66,1.51,13.14,1.51
			c10.69,0,21.09-2.99,30.08-8.55l6.03,6.03l-0.18,33.59c-0.37,3.11-0.55,6.25-0.55,9.35c0,36.48,24.95,67.23,58.68,76.1
			c-28.83,16-61.6,24.61-94.75,24.61c-16.95,0-33.86-2.23-50.23-6.62c-32.19-8.63-61.78-25.61-85.57-49.12
			c-13.68-13.51-25.31-29.01-34.5-45.85c5.08,1.54,10.41,2.35,15.86,2.35c30.39,0,55.11-24.73,55.11-55.12v-83.36v-1.16l-0.27-1.13
			c-0.15-0.66-0.23-1.36-0.23-2.08C371.41,200.22,375.7,195.93,380.96,195.93 M380.96,185.93c-10.79,0-19.55,8.75-19.55,19.55
			c0,1.5,0.17,2.97,0.5,4.37v83.36c0,24.92-20.2,45.12-45.11,45.12c-18.03,0-33.59-10.57-40.81-25.86
			c20.1,65.23,72.23,119.32,142.44,138.14c17.45,4.68,35.2,6.96,52.82,6.96c45.1,0,89.35-14.94,125.38-42.86
			c-3.47,0.54-7.02,0.82-10.63,0.82c-37.93,0-68.68-30.75-68.68-68.68c0-2.95,0.19-5.86,0.55-8.72v-0.03l0.2-38.31l-15.05-15.05
			c-8.3,7.27-19.17,11.69-31.08,11.69c-7.11,0-13.85-1.57-19.89-4.4c-1.18,13.31-12.35,23.74-25.97,23.74
			c-14.4,0-26.07-11.67-26.07-26.07v-79.85c0.33-1.4,0.5-2.87,0.5-4.37C400.51,194.68,391.76,185.93,380.96,185.93L380.96,185.93z"
			/>
	</g>
	<g class="st1">
		<path d="M316.8,333.33c-15.33,0-29.48-8.89-36.14-22.68c-1.45-4.74-2.75-9.63-3.86-14.55l-0.11-0.51
			c-6.91-30.97-6.23-63.53,1.97-94.15c11.53-43.05,36.61-80.1,72.53-107.15c34.81-26.22,77.7-40.65,120.77-40.65
			c17.19,0,34.36,2.27,51.04,6.74c32.17,8.62,61.75,25.22,85.85,48.14L506.84,210.53c-9.53-8.57-21.98-13.4-34.9-13.4
			c-28.76,0-52.15,23.39-52.15,52.15c0,5.43,0.83,10.78,2.47,15.89c4.03,12.61,12.77,23.23,24.27,29.65
			c-2.28,9.29-10.57,15.95-20.45,15.95c-11.62,0-21.07-9.45-21.07-21.07v-79.3c0.33-1.6,0.5-3.25,0.5-4.92
			c0-13.54-11.01-24.55-24.55-24.55c-13.54,0-24.55,11.01-24.55,24.55c0,1.67,0.17,3.32,0.5,4.91v82.81
			C356.91,315.33,338.92,333.33,316.8,333.33z"/>
		<path d="M471.97,58.65c16.75,0,33.48,2.21,49.74,6.56c29.71,7.96,57.15,22.9,79.93,43.44l-95.12,95.13
			c-9.87-7.49-22.02-11.65-34.57-11.65c-31.51,0-57.15,25.64-57.15,57.15c0,5.95,0.91,11.81,2.7,17.41
			c3.98,12.45,12.15,23.14,22.95,30.28c-2.64,5.27-8.08,8.8-14.37,8.8c-8.86,0-16.07-7.21-16.07-16.07v-78.82
			c0.33-1.77,0.5-3.58,0.5-5.4c0-16.29-13.26-29.55-29.55-29.55c-16.29,0-29.55,13.26-29.55,29.55c0,1.83,0.17,3.64,0.5,5.4v82.33
			c0,19.37-15.75,35.12-35.11,35.12c-13.3,0-25.58-7.64-31.47-19.52c-1.31-4.31-2.49-8.75-3.52-13.21v-0.02l-0.24-1.08
			c-6.74-30.19-6.08-61.92,1.92-91.76c5.66-21.13,14.79-40.97,27.13-58.96c11.92-17.39,26.59-32.69,43.58-45.49
			C388.15,72.73,429.97,58.65,471.97,58.65L471.97,58.65 M471.96,48.65c-90.26,0-173.77,60.59-198.13,151.51
			c-8.72,32.55-8.94,65.53-2.02,96.53v0.04c1.19,5.31,2.58,10.56,4.18,15.75c7.22,15.29,22.78,25.86,40.81,25.86
			c24.91,0,45.11-20.2,45.11-45.12v-83.36c-0.33-1.4-0.5-2.87-0.5-4.37c0-10.8,8.76-19.55,19.55-19.55
			c10.8,0,19.55,8.75,19.55,19.55c0,1.5-0.17,2.97-0.5,4.37v79.85c0,14.4,11.67,26.07,26.07,26.07c13.62,0,24.79-10.43,25.97-23.74
			c-11.84-5.5-21.01-15.79-25.03-28.38c-1.45-4.53-2.23-9.36-2.23-14.37c0-26.04,21.11-47.15,47.15-47.15
			c13.84,0,26.28,5.96,34.91,15.46l109.11-109.12c-25.38-25.38-57-43.63-91.67-52.92C506.84,50.88,489.28,48.65,471.96,48.65
			L471.96,48.65z"/>
	</g>
	<path class="st1" d="M615.96,397.68c-6.12,6.12-12.58,11.81-19.33,17.03c-3.47,0.54-7.02,0.82-10.63,0.82
		c-37.93,0-68.68-30.75-68.68-68.68c0-2.95,0.19-5.86,0.55-8.72v-0.03l0.2-38.31L615.96,397.68z"/>
	<g class="st1">
		<path d="M1072,447.05l0.21-39.39c0.53-2.97,0.79-6.02,0.79-9.07c0-11.39-3.7-22.36-10.49-31.37l102.32-102.33
			c16.95,17.81,30.3,38.36,39.74,61.15c10.08,24.34,15.19,50.02,15.19,76.35c0,26.32-5.11,52-15.19,76.34
			c-9.44,22.79-22.8,43.34-39.74,61.15L1072,447.05z"/>
		<path d="M1164.7,272.1c14.87,16.47,26.71,35.22,35.26,55.85c9.83,23.73,14.81,48.77,14.81,74.43c0,25.66-4.98,50.7-14.81,74.42
			c-8.55,20.63-20.39,39.38-35.26,55.85l-87.69-87.68l0.19-36.88c0.53-3.12,0.79-6.32,0.79-9.52c0-11-3.15-21.65-9-30.79
			L1164.7,272.1 M1164.88,257.78L1055.76,366.9c7.6,8.37,12.24,19.49,12.24,31.69c0,2.94-0.27,5.82-0.79,8.61l-0.22,41.91
			l97.89,97.88c38.33-38.34,59.89-90.39,59.89-144.6C1224.77,348.17,1203.21,296.12,1164.88,257.78L1164.88,257.78z"/>
	</g>
	<g class="st1">
		<path d="M1067.21,407.2c-1.95,10.63-7.48,20.01-15.29,26.84l15.07,15.07L1067.21,407.2L1067.21,407.2z"/>
	</g>
</g>
<g id="レイヤー_2" class="st0">
	<g class="st1">
		<path d="M887.57,188.65c27.47,0,54.12,5.38,79.21,15.99c24.23,10.25,46,24.92,64.69,43.61c18.69,18.69,33.36,40.45,43.61,64.69
			c10.61,25.09,15.99,51.74,15.99,79.21s-5.38,54.12-15.99,79.21c-10.25,24.23-24.92,46-43.61,64.69
			c-18.69,18.69-40.45,33.36-64.69,43.61c-25.09,10.61-51.74,15.99-79.21,15.99s-54.12-5.38-79.21-15.99
			c-24.23-10.25-46-24.92-64.69-43.61c-18.69-18.69-33.36-40.45-43.61-64.69c-10.61-25.09-15.99-51.74-15.99-79.21
			s5.38-54.12,15.99-79.21c10.25-24.23,24.92-46,43.61-64.69s40.45-33.36,64.69-43.61C833.44,194.03,860.09,188.65,887.57,188.65
			 M887.57,187.65c-112.94,0-204.5,91.56-204.5,204.5s91.56,204.5,204.5,204.5s204.5-91.56,204.5-204.5
			S1000.51,187.65,887.57,187.65L887.57,187.65z"/>
	</g>
	<g class="st1">
		<path d="M887.51,346.11c25.45,0,46.15,20.7,46.15,46.15s-20.7,46.15-46.15,46.15s-46.15-20.7-46.15-46.15
			S862.06,346.11,887.51,346.11 M887.51,345.11c-26.04,0-47.15,21.11-47.15,47.15s21.11,47.15,47.15,47.15s47.15-21.11,47.15-47.15
			S913.55,345.11,887.51,345.11L887.51,345.11z"/>
	</g>
	<g class="st1">
		<path d="M732.87,392.58c24.05,0,43.62,19.57,43.62,43.62c0,24.05-19.57,43.62-43.62,43.62c-24.05,0-43.62-19.57-43.62-43.62
			C689.25,412.14,708.82,392.58,732.87,392.58 M732.87,391.58c-24.64,0-44.62,19.98-44.62,44.62s19.98,44.62,44.62,44.62
			s44.62-19.98,44.62-44.62S757.51,391.58,732.87,391.58L732.87,391.58z"/>
	</g>
	<g class="st1">
		<path d="M841.65,407.61c13.82,0,25.07,11.25,25.07,25.07s-11.25,25.07-25.07,25.07s-25.07-11.25-25.07-25.07
			S827.83,407.61,841.65,407.61 M841.65,406.61c-14.4,0-26.07,11.67-26.07,26.07s11.67,26.07,26.07,26.07s26.07-11.67,26.07-26.07
			S856.05,406.61,841.65,406.61L841.65,406.61z"/>
	</g>
	<g class="st1">
		<path d="M1001.57,422.15c37.32,0,67.68,30.36,67.68,67.68c0,37.32-30.36,67.68-67.68,67.68c-37.32,0-67.68-30.36-67.68-67.68
			C933.89,452.51,964.25,422.15,1001.57,422.15 M1001.57,421.15c-37.93,0-68.68,30.75-68.68,68.68c0,37.93,30.75,68.68,68.68,68.68
			s68.68-30.75,68.68-68.68C1070.25,451.9,1039.5,421.15,1001.57,421.15L1001.57,421.15z"/>
	</g>
	<line class="st3" x1="933.39" y1="489.83" x2="933.91" y2="391.64"/>
	<line class="st3" x1="777.48" y1="436.19" x2="777.48" y2="348.46"/>
	<line class="st3" x1="815.58" y1="432.68" x2="815.58" y2="348.46"/>
	<circle class="st3" cx="796.53" cy="348.46" r="19.55"/>
	<g class="st1">
		<path d="M431.16,229.22c17.53,0,35.04,2.31,52.05,6.87c34.14,9.15,65.41,27.11,90.52,51.96L429.84,431.95l-0.71,0.71l0.71,0.71
			l143.89,143.89c-18.95,18.77-41.08,33.42-65.8,43.58c-24.73,10.16-50.8,15.31-77.5,15.31c-17.74,0-35.42-2.33-52.56-6.92
			c-26.34-7.06-50.58-19.16-72.04-35.97c-20.71-16.22-37.93-36.09-51.18-59.05c-13.26-22.96-21.85-47.81-25.55-73.85
			c-3.83-26.98-2.19-54.02,4.87-80.37c5.93-22.12,15.48-42.89,28.4-61.72c12.48-18.19,27.82-34.2,45.59-47.58
			C343.48,243.95,387.22,229.22,431.16,229.22L431.16,229.22 M431.15,228.22c-90.25,0.01-173.77,60.59-198.14,151.51
			c-29.04,108.36,36.24,221.42,144.6,250.46c17.45,4.68,35.2,6.95,52.82,6.95c53.56,0,105.89-21.06,144.71-59.88l-144.6-144.6
			l144.6-144.6c-25.38-25.38-57-43.64-91.67-52.93C466.03,230.45,448.47,228.22,431.15,228.22L431.15,228.22z"/>
	</g>
	<g class="st1">
		<path d="M431.13,382.71c25.45,0,46.15,20.7,46.15,46.15S456.58,475,431.13,475s-46.15-20.7-46.15-46.15
			S405.68,382.71,431.13,382.71 M431.13,381.71c-26.04,0-47.15,21.11-47.15,47.15S405.09,476,431.13,476s47.15-21.11,47.15-47.15
			S457.17,381.71,431.13,381.71L431.13,381.71z"/>
	</g>
	<g class="st1">
		<path d="M275.99,428.67c24.33,0,44.12,19.79,44.12,44.12c0,24.33-19.79,44.12-44.12,44.12c-24.33,0-44.12-19.79-44.12-44.12
			C231.87,448.46,251.66,428.67,275.99,428.67 M275.99,427.67c-24.92,0-45.12,20.2-45.12,45.12c0,24.92,20.2,45.12,45.12,45.12
			c24.92,0,45.12-20.2,45.12-45.12C321.1,447.87,300.9,427.67,275.99,427.67L275.99,427.67z"/>
	</g>
	<g class="st1">
		<path d="M385.27,444.21c13.82,0,25.07,11.25,25.07,25.07s-11.25,25.07-25.07,25.07s-25.07-11.25-25.07-25.07
			S371.45,444.21,385.27,444.21 M385.27,443.21c-14.4,0-26.07,11.67-26.07,26.07s11.67,26.07,26.07,26.07s26.07-11.67,26.07-26.07
			S399.67,443.21,385.27,443.21L385.27,443.21z"/>
	</g>
	<g class="st1">
		<path d="M545.19,458.75c37.32,0,67.68,30.36,67.68,67.68s-30.36,67.68-67.68,67.68s-67.68-30.36-67.68-67.68
			S507.87,458.75,545.19,458.75 M545.19,457.75c-37.93,0-68.68,30.75-68.68,68.68s30.75,68.68,68.68,68.68s68.68-30.75,68.68-68.68
			S583.12,457.75,545.19,457.75L545.19,457.75z"/>
	</g>
	<line class="st3" x1="477.01" y1="526.43" x2="477.53" y2="428.24"/>
	<line class="st3" x1="321.1" y1="472.79" x2="321.1" y2="385.06"/>
	<line class="st3" x1="359.2" y1="469.28" x2="359.2" y2="385.06"/>
	<circle class="st3" cx="340.15" cy="385.06" r="19.55"/>
</g>
<g id="レイヤー_4" class="st0">
	<g class="st1">
		<path d="M403.9,196.57c5.27,0,9.55,4.28,9.55,9.55c0,0.72-0.08,1.42-0.23,2.08l-0.27,1.13v1.16v79.85
			c0,19.89,16.18,36.07,36.07,36.07c9.07,0,17.74-3.38,24.42-9.53c6.63-6.1,10.72-14.39,11.51-23.34l0.62-6.99l-6.37-2.96
			c-9.38-4.36-16.57-12.51-19.72-22.37c-1.17-3.62-1.76-7.43-1.76-11.31c0-20.48,16.67-37.14,37.15-37.14
			c20.48,0,37.15,16.66,37.15,37.14c0,2.31-0.21,4.6-0.63,6.81l-0.17,0.89l0,0.91l-0.42,79.62c-0.37,3.11-0.55,6.25-0.55,9.35
			c0,34.95,22.91,64.66,54.51,74.88c-27.58,14.41-58.18,21.93-89.84,21.93c-41.47,0-81.04-12.87-114.43-37.21
			c-16.08-11.72-30.24-25.78-42.07-41.79c-4.44-6.01-8.52-12.25-12.23-18.68c4.52,1.2,9.23,1.84,14.03,1.84
			c30.12,0,54.62-24.5,54.62-54.61v-83.36v-1.16l-0.27-1.13c-0.15-0.66-0.23-1.36-0.23-2.08
			C394.35,200.85,398.63,196.57,403.9,196.57 M403.9,186.57c-10.8,0-19.55,8.75-19.55,19.55c0,1.5,0.17,2.97,0.5,4.37v83.36
			c0,24.64-19.98,44.61-44.62,44.61c-16.78,0-31.39-9.26-39.01-22.94c27.37,80.71,103.76,138.78,193.71,138.78
			c44.49,0,85.65-14.21,119.21-38.32c-1.71,0.12-3.45,0.19-5.2,0.19c-37.93,0-68.68-30.75-68.68-68.68c0-2.95,0.19-5.86,0.55-8.72
			v-0.03l0.42-80.17c0.53-2.81,0.8-5.7,0.8-8.66c0-26.04-21.11-47.14-47.15-47.14c-26.04,0-47.15,21.1-47.15,47.14
			c0,5.02,0.78,9.85,2.24,14.38c4.02,12.58,13.19,22.87,25.02,28.37c-1.18,13.3-12.36,23.75-25.97,23.75
			c-14.4,0-26.07-11.68-26.07-26.07v-79.85c0.33-1.4,0.5-2.87,0.5-4.37C423.45,195.32,414.7,186.57,403.9,186.57L403.9,186.57z"/>
	</g>
	<g class="st1">
		<path d="M494.88,212.77c20.48,0,37.15,16.66,37.15,37.14c0,2.31-0.21,4.6-0.63,6.84c-3.26,17.56-18.61,30.31-36.52,30.31
			c-5.49,0-10.75-1.16-15.67-3.47c-9.38-4.36-16.57-12.51-19.72-22.37c-1.17-3.62-1.76-7.43-1.76-11.31
			C457.73,229.43,474.4,212.77,494.88,212.77 M494.88,202.77c-26.04,0-47.15,21.1-47.15,47.14c0,5.02,0.78,9.85,2.24,14.38
			c4.02,12.58,13.19,22.87,25.02,28.37c6.04,2.83,12.78,4.4,19.89,4.4c23.08,0,42.29-16.59,46.35-38.49c0.53-2.81,0.8-5.7,0.8-8.66
			C542.03,223.87,520.92,202.77,494.88,202.77L494.88,202.77z"/>
	</g>
	<g class="st1">
		<path d="M608.94,411.17c-35.11,0-63.68-28.57-63.68-63.68c0-2.68,0.17-5.4,0.51-8.1l0.04-0.31l0.42-80.05
			c0.53-2.98,0.8-6.05,0.8-9.13c0-28.75-23.39-52.14-52.15-52.14c-28.76,0-52.15,23.39-52.15,52.14c0,5.45,0.83,10.81,2.48,15.91
			c4.02,12.59,12.76,23.21,24.25,29.62c-2.31,9.17-10.74,15.96-20.44,15.96c-11.62,0-21.07-9.45-21.07-21.07v-79.3
			c0.33-1.6,0.5-3.25,0.5-4.92c0-13.54-11.01-24.55-24.55-24.55c-13.54,0-24.55,11.01-24.55,24.55c0,1.67,0.17,3.32,0.5,4.92v82.81
			c0,21.84-17.77,39.61-39.62,39.61c-14.22,0-27.37-7.65-34.42-19.99c-2.01-5.96-3.74-12.05-5.15-18.1l-0.11-0.51
			c-3.39-14.68-5.11-29.84-5.11-45.06c0-110,89.5-199.5,199.5-199.5c110,0,199.5,89.5,199.5,199.5c0,31.73-7.22,62.05-21.47,90.13
			c-14.21,28.01-35.13,52.58-60.58,71.15C611.2,411.14,610.04,411.17,608.94,411.17z"/>
		<path d="M494.93,55.3c26.26,0,51.73,5.14,75.7,15.28c23.16,9.8,43.96,23.82,61.83,41.69c17.87,17.87,31.89,38.67,41.69,61.83
			c10.14,23.97,15.28,49.44,15.28,75.7c0,30.93-7.04,60.5-20.93,87.87c-13.63,26.86-33.59,50.48-57.85,68.48
			c-0.58,0.02-1.16,0.03-1.71,0.03c-32.36,0-58.68-26.32-58.68-58.68c0-2.47,0.16-4.98,0.47-7.47l0.08-0.65v-0.6l0.42-79.28
			c0.53-3.13,0.8-6.35,0.8-9.57c0-31.51-25.64-57.14-57.15-57.14c-31.51,0-57.15,25.63-57.15,57.14c0,5.97,0.92,11.84,2.71,17.42
			c3.97,12.43,12.13,23.11,22.91,30.24c-2.68,5.24-8.17,8.83-14.33,8.83c-8.86,0-16.07-7.21-16.07-16.07v-78.82
			c0.33-1.77,0.5-3.58,0.5-5.4c0-16.29-13.26-29.55-29.55-29.55s-29.55,13.26-29.55,29.55c0,1.83,0.17,3.64,0.5,5.4v82.33
			c0,19.08-15.53,34.61-34.62,34.61c-12.27,0-23.62-6.51-29.84-17.06c-1.82-5.45-3.4-11.01-4.72-16.55v-0.01l-0.26-1.11
			c-3.31-14.31-4.98-29.09-4.98-43.94c0-26.26,5.14-51.73,15.28-75.7c9.8-23.16,23.82-43.96,41.69-61.83
			c17.87-17.87,38.67-31.89,61.83-41.69C443.2,60.44,468.67,55.3,494.93,55.3 M494.93,45.3c-112.94,0-204.5,91.56-204.5,204.5
			c0,15.88,1.81,31.35,5.24,46.19c0,0,0,0.01,0,0.02c1.53,6.63,3.39,13.14,5.55,19.51c7.62,13.68,22.23,22.94,39.01,22.94
			c24.64,0,44.62-19.97,44.62-44.61v-83.36c-0.33-1.4-0.5-2.87-0.5-4.37c0-10.8,8.75-19.55,19.55-19.55s19.55,8.75,19.55,19.55
			c0,1.5-0.17,2.97-0.5,4.37v79.85c0,14.39,11.67,26.07,26.07,26.07c13.61,0,24.79-10.45,25.97-23.75
			c-11.83-5.5-21-15.79-25.02-28.37c-1.46-4.53-2.24-9.36-2.24-14.38c0-26.04,21.11-47.14,47.15-47.14
			c26.04,0,47.15,21.1,47.15,47.14c0,2.96-0.27,5.85-0.8,8.66l-0.42,80.17v0.03c-0.36,2.86-0.55,5.77-0.55,8.72
			c0,37.93,30.75,68.68,68.68,68.68c1.75,0,3.49-0.07,5.2-0.19c26.57-19.1,48.37-44.4,63.28-73.79
			c14.08-27.75,22.01-59.14,22.01-92.39C699.43,136.86,607.87,45.3,494.93,45.3L494.93,45.3z"/>
	</g>
	<line class="st4" x1="384.85" y1="210.49" x2="384.85" y2="206.12"/>
	<line class="st4" x1="422.95" y1="210.49" x2="422.95" y2="206.12"/>
	<circle class="st4" cx="522" cy="830" r="351"/>
</g>
</svg>
